# xmcd
#
# Track frame offsets:
#	150
#	15632
#	37232
#	49285
#	74630
#	90910
#	118685
#	134980
#	154117
#	176247
#	187992
#
# Disc length: 2530 seconds
#
# Revision: 0
# Processed by: cddbd v1.5.2PL0 Copyright (c) Steve Scherf et al.
# Submitted via: audiograbber 1.83.01
#
DISCID=a209e00b
DTITLE=Hill, Kim - Brave heart
DYEAR=1991
DGENRE=Country
TTITLE0=Words
TTITLE1=Satisfied
TTITLE2=Up in the sky
TTITLE3=Mysterious ways
TTITLE4=Round and round
TTITLE5=Stop my heart
TTITLE6=She'll come around
TTITLE7=Don't face the world alone
TTITLE8=In my life
TTITLE9=I will wait
TTITLE10=(hidden track)
EXTD=
EXTT0=
EXTT1=
EXTT2=
EXTT3=
EXTT4=
EXTT5=
EXTT6=
EXTT7=
EXTT8=
EXTT9=
EXTT10=
PLAYORDER=
